SourceCode-BlackItalic.ufo
<glyph name="E" format="2">
	<unicode hex="0045"/>
	<advance width="600"/>
	<outline>
		<contour>
			<point x="30" y="0" type="line"/>
			<point x="474" y="0" type="line"/>
			<point x="500" y="134" type="line"/>
			<point x="216" y="134" type="line"/>
			<point x="244" y="268" type="line"/>
			<point x="474" y="268" type="line"/>
			<point x="500" y="402" type="line"/>
			<point x="270" y="402" type="line"/>
			<point x="292" y="516" type="line"/>
			<point x="568" y="516" type="line"/>
			<point x="594" y="650" type="line"/>
			<point x="160" y="650" type="line"/>
		</contour>
	</outline>
	<anchor name="aboveUC" x="386" y="670"/>
	<anchor name="baseLC" x="270" y="0"/>
	<anchor name="belowLC" x="260" y="-20"/>
	<anchor name="ogonekUC" x="368" y="0"/>
</glyph>
<glyph name="F" format="2">
	<unicode hex="0046"/>
	<advance width="600"/>
	<outline>
		<contour>
			<point x="46" y="0" type="line"/>
			<point x="206" y="0" type="line"/>
			<point x="256" y="248" type="line"/>
			<point x="482" y="248" type="line"/>
			<point x="508" y="382" type="line"/>
			<point x="282" y="382" type="line"/>
			<point x="308" y="516" type="line"/>
			<point x="580" y="516" type="line"/>
			<point x="606" y="650" type="line"/>
			<point x="176" y="650" type="line"/>
		</contour>
	</outline>
	<anchor name="aboveUC" x="396" y="670"/>
	<anchor name="baseLC" x="130" y="0"/>
	<anchor name="belowLC" x="130" y="-20"/>
</glyph>
<glyph name="L" format="2">
	<unicode hex="004C"/>
	<advance width="600"/>
	<outline>
		<contour>
			<point x="52" y="0" type="line"/>
			<point x="492" y="0" type="line"/>
			<point x="518" y="134" type="line"/>
			<point x="238" y="134" type="line"/>
			<point x="342" y="650" type="line"/>
			<point x="182" y="650" type="line"/>
		</contour>
	</outline>
	<anchor name="aboveUC" x="266" y="670"/>
	<anchor name="baseLC" x="290" y="0"/>
	<anchor name="belowLC" x="280" y="-20"/>
	<anchor name="center" x="198" y="350"/>
</glyph>
<glyph name="T" format="2">
	<unicode hex="0054"/>
	<advance width="600"/>
	<outline>
		<contour>
			<point x="158" y="0" type="line"/>
			<point x="318" y="0" type="line"/>
			<point x="420" y="516" type="line"/>
			<point x="610" y="516" type="line"/>
			<point x="636" y="650" type="line"/>
			<point x="96" y="650" type="line"/>
			<point x="70" y="516" type="line"/>
			<point x="260" y="516" type="line"/>
		</contour>
	</outline>
	<anchor name="aboveUC" x="370" y="670"/>
	<anchor name="baseLC" x="240" y="0"/>
	<anchor name="belowLC" x="236" y="-20"/>
</glyph>
<glyph name="z" format="2">
	<unicode hex="007A"/>
	<advance width="600"/>
	<outline>
		<contour>
			<point x="18" y="0" type="line"/>
			<point x="472" y="0" type="line"/>
			<point x="496" y="124" type="line"/>
			<point x="250" y="124" type="line"/>
			<point x="542" y="406" type="line"/>
			<point x="560" y="500" type="line"/>
			<point x="120" y="500" type="line"/>
			<point x="94" y="378" type="line"/>
			<point x="330" y="378" type="line"/>
			<point x="36" y="94" type="line"/>
		</contour>
	</outline>
	<anchor name="aboveLC" x="340" y="520"/>
	<anchor name="baseLC" x="270" y="0"/>
	<anchor name="belowLC" x="260" y="-20"/>
</glyph>
<glyph name="uogonek" format="2">
	<unicode hex="0173"/>
	<advance width="600"/>
	<outline>
		<contour>
			<point x="344" y="-228" type="curve" smooth="yes"/>
			<point x="392" y="-228"/>
			<point x="436" y="-212"/>
			<point x="468" y="-188" type="curve"/>
			<point x="442" y="-124" type="line"/>
			<point x="426" y="-132"/>
			<point x="416" y="-134"/>
			<point x="402" y="-134" type="curve" smooth="yes"/>
			<point x="378" y="-134"/>
			<point x="356" y="-120"/>
			<point x="356" y="-94" type="curve" smooth="yes"/>
			<point x="356" y="-62"/>
			<point x="382" y="-24"/>
			<point x="472" y="0" type="curve"/>
			<point x="570" y="500" type="line"/>
			<point x="410" y="500" type="line"/>
			<point x="352" y="202" type="line"/>
			<point x="313" y="150"/>
			<point x="271" y="124"/>
			<point x="238" y="124" type="curve" smooth="yes"/>
			<point x="212" y="124"/>
			<point x="196" y="138"/>
			<point x="196" y="166" type="curve" smooth="yes"/>
			<point x="196" y="178"/>
			<point x="200" y="192"/>
			<point x="204" y="210" type="curve" smooth="yes"/>
			<point x="262" y="500" type="line"/>
			<point x="102" y="500" type="line"/>
			<point x="40" y="190" type="line" smooth="yes"/>
			<point x="35" y="166"/>
			<point x="32" y="140"/>
			<point x="32" y="118" type="curve" smooth="yes"/>
			<point x="32" y="32"/>
			<point x="80" y="-12"/>
			<point x="162" y="-12" type="curve" smooth="yes"/>
			<point x="226" y="-12"/>
			<point x="296" y="34"/>
			<point x="342" y="80" type="curve"/>
			<point x="346" y="80" type="line"/>
			<point x="342" y="2" type="line"/>
			<point x="306" y="-18"/>
			<point x="242" y="-72"/>
			<point x="242" y="-140" type="curve" smooth="yes"/>
			<point x="242" y="-198"/>
			<point x="284" y="-228"/>
		</contour>
	</outline>
	<anchor name="aboveLC" x="334" y="520"/>
</glyph>
<glyph name="Ohorn" format="2">
	<unicode hex="01A0"/>
	<advance width="600"/>
	<outline>
		<contour>
			<point x="516" y="576" type="line"/>
			<point x="632" y="594"/>
			<point x="684" y="648"/>
			<point x="684" y="744" type="curve" smooth="yes"/>
			<point x="684" y="770"/>
			<point x="678" y="801"/>
			<point x="666" y="828" type="curve"/>
			<point x="548" y="792" type="line"/>
			<point x="555" y="775"/>
			<point x="560" y="748"/>
			<point x="560" y="732" type="curve" smooth="yes"/>
			<point x="560" y="674"/>
			<point x="530" y="640"/>
			<point x="465" y="633" type="curve"/>
		</contour>
		<component base="O"/>
	</outline>
	<anchor name="aboveUC" x="370" y="670"/>
	<anchor name="belowLC" x="230" y="-20"/>
</glyph>
<glyph name="Uhorn" format="2">
	<unicode hex="01AF"/>
	<advance width="600"/>
	<outline>
		<contour>
			<point x="586" y="592" type="line"/>
			<point x="692" y="610"/>
			<point x="742" y="658"/>
			<point x="742" y="744" type="curve" smooth="yes"/>
			<point x="742" y="770"/>
			<point x="736" y="801"/>
			<point x="724" y="828" type="curve"/>
			<point x="606" y="792" type="line"/>
			<point x="613" y="775"/>
			<point x="618" y="748"/>
			<point x="618" y="732" type="curve" smooth="yes"/>
			<point x="618" y="684"/>
			<point x="591" y="655"/>
			<point x="535" y="649" type="curve"/>
		</contour>
		<component base="U"/>
	</outline>
	<anchor name="aboveUC" x="370" y="670"/>
	<anchor name="belowLC" x="230" y="-20"/>
</glyph>
<glyph name="clickalveolar" format="2">
	<unicode hex="01C2"/>
	<advance width="600"/>
	<outline>
		<contour>
			<point x="116" y="-176" type="line"/>
			<point x="272" y="-176" type="line"/>
			<point x="470" y="696" type="line"/>
			<point x="314" y="696" type="line"/>
		</contour>
		<contour>
			<point x="80" y="330" type="line"/>
			<point x="518" y="330" type="line"/>
			<point x="534" y="410" type="line"/>
			<point x="251" y="410" type="line"/>
			<point x="94" y="404" type="line"/>
		</contour>
		<contour>
			<point x="40" y="124" type="line"/>
			<point x="478" y="124" type="line"/>
			<point x="494" y="204" type="line"/>
			<point x="210" y="204" type="line"/>
			<point x="54" y="198" type="line"/>
		</contour>
	</outline>
</glyph>
<glyph name="dotaccentcmb" format="2">
	<unicode hex="0307"/>
	<advance width="600"/>
	<outline>
		<contour>
			<point x="364" y="570" type="curve" smooth="yes"/>
			<point x="427" y="570"/>
			<point x="477" y="615"/>
			<point x="477" y="675" type="curve" smooth="yes"/>
			<point x="477" y="732"/>
			<point x="435" y="762"/>
			<point x="378" y="762" type="curve" smooth="yes"/>
			<point x="315" y="762"/>
			<point x="266" y="713"/>
			<point x="266" y="657" type="curve" smooth="yes"/>
			<point x="266" y="598"/>
			<point x="314" y="570"/>
		</contour>
	</outline>
	<anchor name="_aboveLC" x="340" y="520"/>
	<anchor name="aboveLC" x="390" y="760"/>
</glyph>
<glyph name="bridgebelowcmb" format="2">
	<unicode hex="032A"/>
	<advance width="600"/>
	<outline>
		<contour>
			<point x="72" y="-218" type="line"/>
			<point x="150" y="-218" type="line"/>
			<point x="163" y="-156" type="line"/>
			<point x="255" y="-156" type="line"/>
			<point x="243" y="-218" type="line"/>
			<point x="321" y="-218" type="line"/>
			<point x="350" y="-76" type="line"/>
			<point x="100" y="-76" type="line"/>
		</contour>
	</outline>
	<anchor name="_belowLC" x="234" y="-20"/>
</glyph>
<glyph name="xabovecmb" format="2">
	<unicode hex="033D"/>
	<advance width="600"/>
	<outline>
		<contour>
			<point x="298" y="535" type="line"/>
			<point x="357" y="586" type="line"/>
			<point x="396" y="535" type="line"/>
			<point x="461" y="591" type="line"/>
			<point x="422" y="642" type="line"/>
			<point x="481" y="693" type="line"/>
			<point x="439" y="749" type="line"/>
			<point x="379" y="698" type="line"/>
			<point x="341" y="749" type="line"/>
			<point x="276" y="693" type="line"/>
			<point x="315" y="642" type="line"/>
			<point x="255" y="591" type="line"/>
		</contour>
	</outline>
	<anchor name="_aboveLC" x="340" y="520"/>
</glyph>
<glyph name="o.sups" format="2">
	<unicode hex="1D52"/>
	<advance width="600"/>
	<outline>
		<contour>
			<point x="314" y="360" type="curve" smooth="yes"/>
			<point x="421" y="360"/>
			<point x="516" y="426"/>
			<point x="516" y="565" type="curve" smooth="yes"/>
			<point x="516" y="656"/>
			<point x="455" y="706"/>
			<point x="375" y="706" type="curve" smooth="yes"/>
			<point x="271" y="706"/>
			<point x="170" y="639"/>
			<point x="170" y="500" type="curve" smooth="yes"/>
			<point x="170" y="409"/>
			<point x="233" y="360"/>
		</contour>
		<contour>
			<point x="327" y="449" type="curve" smooth="yes"/>
			<point x="297" y="449"/>
			<point x="283" y="470"/>
			<point x="283" y="504" type="curve" smooth="yes"/>
			<point x="283" y="555"/>
			<point x="309" y="618"/>
			<point x="362" y="618" type="curve" smooth="yes"/>
			<point x="391" y="618"/>
			<point x="403" y="598"/>
			<point x="403" y="564" type="curve" smooth="yes"/>
			<point x="403" y="512"/>
			<point x="383" y="449"/>
		</contour>
	</outline>
</glyph>
<glyph name="f.sups" format="2">
	<unicode hex="1DA0"/>
	<advance width="600"/>
	<outline>
		<contour>
			<point x="241" y="368" type="line"/>
			<point x="351" y="368" type="line"/>
			<point x="418" y="704" type="line" smooth="yes"/>
			<point x="424" y="735"/>
			<point x="439" y="751"/>
			<point x="476" y="751" type="curve" smooth="yes"/>
			<point x="495" y="751"/>
			<point x="510" y="745"/>
			<point x="528" y="733" type="curve"/>
			<point x="575" y="803" type="line"/>
			<point x="552" y="820"/>
			<point x="520" y="836"/>
			<point x="466" y="836" type="curve" smooth="yes"/>
			<point x="383" y="836"/>
			<point x="327" y="794"/>
			<point x="311" y="716" type="curve" smooth="yes"/>
		</contour>
		<contour>
			<point x="218" y="616" type="line"/>
			<point x="510" y="616" type="line"/>
			<point x="525" y="698" type="line"/>
			<point x="311" y="698" type="line"/>
			<point x="233" y="694" type="line"/>
		</contour>
	</outline>
</glyph>
<glyph name="arrowright" format="2">
	<unicode hex="2192"/>
	<advance width="600"/>
	<outline>
		<contour>
			<point x="308" y="-18" type="line"/>
			<point x="587" y="250" type="line"/>
			<point x="587" y="254" type="line"/>
			<point x="308" y="522" type="line"/>
			<point x="233" y="435" type="line"/>
			<point x="372" y="316" type="line"/>
			<point x="32" y="316" type="line"/>
			<point x="32" y="188" type="line"/>
			<point x="372" y="188" type="line"/>
			<point x="233" y="69" type="line"/>
		</contour>
	</outline>
</glyph>
<glyph name="arrowupdnbse" format="2">
	<unicode hex="21A8"/>
	<advance width="600"/>
	<outline>
		<contour>
			<point x="60" y="-180" type="line"/>
			<point x="540" y="-180" type="line"/>
			<point x="540" y="-62" type="line"/>
			<point x="60" y="-62" type="line"/>
		</contour>
		<component base="arrowupdn"/>
	</outline>
</glyph>
<glyph name="product" format="2">
	<unicode hex="220F"/>
	<advance width="600"/>
	<outline>
		<contour>
			<point x="12" y="-120" type="line"/>
			<point x="172" y="-120" type="line"/>
			<point x="172" y="494" type="line"/>
			<point x="414" y="494" type="line"/>
			<point x="414" y="-120" type="line"/>
			<point x="574" y="-120" type="line"/>
			<point x="574" y="634" type="line"/>
			<point x="12" y="634" type="line"/>
		</contour>
	</outline>
</glyph>
<glyph name="integral" format="2">
	<unicode hex="222B"/>
	<advance width="600"/>
	<outline>
		<contour>
			<point x="198" y="-158" type="curve" smooth="yes"/>
			<point x="364" y="-158"/>
			<point x="396" y="-50"/>
			<point x="396" y="93" type="curve" smooth="yes"/>
			<point x="396" y="262"/>
			<point x="360" y="390"/>
			<point x="360" y="545" type="curve" smooth="yes"/>
			<point x="360" y="636"/>
			<point x="372" y="672"/>
			<point x="422" y="672" type="curve" smooth="yes"/>
			<point x="436" y="672"/>
			<point x="448" y="671"/>
			<point x="458" y="668" type="curve"/>
			<point x="473" y="784" type="line"/>
			<point x="462" y="787"/>
			<point x="438" y="792"/>
			<point x="414" y="792" type="curve" smooth="yes"/>
			<point x="248" y="792"/>
			<point x="216" y="684"/>
			<point x="216" y="541" type="curve" smooth="yes"/>
			<point x="216" y="372"/>
			<point x="252" y="244"/>
			<point x="252" y="89" type="curve" smooth="yes"/>
			<point x="252" y="-5"/>
			<point x="241" y="-38"/>
			<point x="190" y="-38" type="curve" smooth="yes"/>
			<point x="176" y="-38"/>
			<point x="164" y="-37"/>
			<point x="154" y="-34" type="curve"/>
			<point x="139" y="-150" type="line"/>
			<point x="150" y="-153"/>
			<point x="174" y="-158"/>
		</contour>
	</outline>
</glyph>
<glyph name="house" format="2">
	<unicode hex="2302"/>
	<advance width="600"/>
	<outline>
		<contour>
			<point x="32" y="0" type="line"/>
			<point x="568" y="0" type="line"/>
			<point x="568" y="360" type="line"/>
			<point x="364" y="663" type="line"/>
			<point x="236" y="663" type="line"/>
			<point x="32" y="360" type="line"/>
		</contour>
		<contour>
			<point x="164" y="107" type="line"/>
			<point x="164" y="324" type="line"/>
			<point x="233" y="438" type="line"/>
			<point x="298" y="548" type="line"/>
			<point x="302" y="548" type="line"/>
			<point x="367" y="438" type="line"/>
			<point x="436" y="324" type="line"/>
			<point x="436" y="107" type="line"/>
		</contour>
	</outline>
</glyph>
<glyph name="integralbt" format="2">
	<unicode hex="2321"/>
	<advance width="600"/>
	<outline>
		<contour>
			<point x="178" y="-158" type="curve" smooth="yes"/>
			<point x="344" y="-158"/>
			<point x="377" y="-50"/>
			<point x="377" y="93" type="curve"/>
			<point x="377" y="1000" type="line"/>
			<point x="233" y="1000" type="line"/>
			<point x="233" y="89" type="line"/>
			<point x="233" y="-5"/>
			<point x="221" y="-38"/>
			<point x="170" y="-38" type="curve" smooth="yes"/>
			<point x="156" y="-38"/>
			<point x="144" y="-37"/>
			<point x="134" y="-34" type="curve"/>
			<point x="119" y="-150" type="line"/>
			<point x="131" y="-153"/>
			<point x="154" y="-158"/>
		</contour>
	</outline>
</glyph>
<glyph name="squarewhite" format="2">
	<unicode hex="25A1"/>
	<advance width="600"/>
	<outline>
		<contour>
			<point x="49" y="79" type="line"/>
			<point x="551" y="79" type="line"/>
			<point x="551" y="581" type="line"/>
			<point x="49" y="581" type="line"/>
		</contour>
		<contour>
			<point x="142" y="164" type="line"/>
			<point x="142" y="496" type="line"/>
			<point x="458" y="496" type="line"/>
			<point x="458" y="164" type="line"/>
		</contour>
	</outline>
</glyph>
<glyph name="triangleupwhite" format="2">
	<unicode hex="25B3"/>
	<advance width="600"/>
	<outline>
		<contour>
			<point x="66" y="101" type="line"/>
			<point x="534" y="101" type="line"/>
			<point x="534" y="104" type="line"/>
			<point x="302" y="583" type="line"/>
			<point x="298" y="583" type="line"/>
			<point x="66" y="104" type="line"/>
		</contour>
		<contour>
			<point x="199" y="178" type="line"/>
			<point x="300" y="398" type="line"/>
			<point x="401" y="178" type="line"/>
		</contour>
	</outline>
</glyph>
<glyph name="trianglesmallrightblack" format="2">
	<unicode hex="25B8"/>
	<advance width="600"/>
	<outline>
		<contour>
			<point x="145" y="81" type="line"/>
			<point x="149" y="81" type="line"/>
			<point x="479" y="260" type="line"/>
			<point x="479" y="264" type="line"/>
			<point x="149" y="443" type="line"/>
			<point x="145" y="443" type="line"/>
		</contour>
	</outline>
</glyph>
<glyph name="pointerblackleft" format="2">
	<unicode hex="25C4"/>
	<advance width="600"/>
	<outline>
		<contour>
			<point x="585" y="106" type="line"/>
			<point x="589" y="106" type="line"/>
			<point x="589" y="575" type="line"/>
			<point x="585" y="575" type="line"/>
			<point x="-29" y="343" type="line"/>
			<point x="-29" y="339" type="line"/>
		</contour>
	</outline>
</glyph>
<glyph name="circleblack" format="2">
	<unicode hex="25CF"/>
	<advance width="600"/>
	<outline>
		<contour>
			<point x="300" y="87" type="curve" smooth="yes"/>
			<point x="442" y="87"/>
			<point x="547" y="191"/>
			<point x="547" y="330" type="curve" smooth="yes"/>
			<point x="547" y="469"/>
			<point x="442" y="573"/>
			<point x="300" y="573" type="curve" smooth="yes"/>
			<point x="158" y="573"/>
			<point x="53" y="469"/>
			<point x="53" y="330" type="curve" smooth="yes"/>
			<point x="53" y="191"/>
			<point x="158" y="87"/>
		</contour>
	</outline>
</glyph>
<glyph name="smileface" format="2">
	<unicode hex="263A"/>
	<advance width="600"/>
	<outline>
		<contour>
			<point x="300" y="26" type="curve" smooth="yes"/>
			<point x="482" y="26"/>
			<point x="608" y="151"/>
			<point x="608" y="330" type="curve" smooth="yes"/>
			<point x="608" y="509"/>
			<point x="482" y="634"/>
			<point x="300" y="634" type="curve" smooth="yes"/>
			<point x="118" y="634"/>
			<point x="-8" y="509"/>
			<point x="-8" y="330" type="curve" smooth="yes"/>
			<point x="-8" y="151"/>
			<point x="118" y="26"/>
		</contour>
		<contour>
			<point x="300" y="98" type="curve" smooth="yes"/>
			<point x="165" y="98"/>
			<point x="74" y="191"/>
			<point x="74" y="330" type="curve" smooth="yes"/>
			<point x="74" y="469"/>
			<point x="165" y="562"/>
			<point x="300" y="562" type="curve" smooth="yes"/>
			<point x="435" y="562"/>
			<point x="526" y="469"/>
			<point x="526" y="330" type="curve" smooth="yes"/>
			<point x="526" y="191"/>
			<point x="435" y="98"/>
		</contour>
		<contour>
			<point x="220" y="333" type="curve" smooth="yes"/>
			<point x="254" y="333"/>
			<point x="275" y="361"/>
			<point x="275" y="404" type="curve" smooth="yes"/>
			<point x="275" y="447"/>
			<point x="254" y="475"/>
			<point x="220" y="475" type="curve" smooth="yes"/>
			<point x="187" y="475"/>
			<point x="165" y="447"/>
			<point x="165" y="404" type="curve" smooth="yes"/>
			<point x="165" y="361"/>
			<point x="187" y="333"/>
		</contour>
		<contour>
			<point x="380" y="333" type="curve" smooth="yes"/>
			<point x="413" y="333"/>
			<point x="435" y="361"/>
			<point x="435" y="404" type="curve" smooth="yes"/>
			<point x="435" y="447"/>
			<point x="413" y="475"/>
			<point x="380" y="475" type="curve" smooth="yes"/>
			<point x="346" y="475"/>
			<point x="325" y="447"/>
			<point x="325" y="404" type="curve" smooth="yes"/>
			<point x="325" y="361"/>
			<point x="346" y="333"/>
		</contour>
		<contour>
			<point x="300" y="152" type="curve" smooth="yes"/>
			<point x="387" y="152"/>
			<point x="442" y="198"/>
			<point x="454" y="273" type="curve"/>
			<point x="404" y="294" type="line"/>
			<point x="390" y="254"/>
			<point x="351" y="232"/>
			<point x="300" y="232" type="curve" smooth="yes"/>
			<point x="249" y="232"/>
			<point x="210" y="254"/>
			<point x="196" y="294" type="curve"/>
			<point x="146" y="273" type="line"/>
			<point x="158" y="198"/>
			<point x="213" y="152"/>
		</contour>
		<contour>
			<point x="236" y="396" type="curve" smooth="yes"/>
			<point x="228" y="396"/>
			<point x="222" y="402"/>
			<point x="222" y="412" type="curve" smooth="yes"/>
			<point x="222" y="422"/>
			<point x="228" y="428"/>
			<point x="236" y="428" type="curve" smooth="yes"/>
			<point x="244" y="428"/>
			<point x="250" y="422"/>
			<point x="250" y="412" type="curve" smooth="yes"/>
			<point x="250" y="402"/>
			<point x="244" y="396"/>
		</contour>
		<contour>
			<point x="396" y="396" type="curve" smooth="yes"/>
			<point x="388" y="396"/>
			<point x="382" y="402"/>
			<point x="382" y="412" type="curve" smooth="yes"/>
			<point x="382" y="422"/>
			<point x="388" y="428"/>
			<point x="396" y="428" type="curve" smooth="yes"/>
			<point x="404" y="428"/>
			<point x="410" y="422"/>
			<point x="410" y="412" type="curve" smooth="yes"/>
			<point x="410" y="402"/>
			<point x="404" y="396"/>
		</contour>
	</outline>
</glyph>
<glyph name="musicalnotedbl" format="2">
	<unicode hex="266B"/>
	<advance width="600"/>
	<outline>
		<contour>
			<point x="97" y="-29" type="curve" smooth="yes"/>
			<point x="214" y="-29"/>
			<point x="286" y="43"/>
			<point x="286" y="177" type="curve"/>
			<point x="286" y="511" type="line"/>
			<point x="283" y="674" type="line"/>
			<point x="198" y="674" type="line"/>
			<point x="198" y="182" type="line"/>
			<point x="190" y="188"/>
			<point x="165" y="194"/>
			<point x="138" y="194" type="curve" smooth="yes"/>
			<point x="54" y="194"/>
			<point x="-13" y="133"/>
			<point x="-13" y="59" type="curve" smooth="yes"/>
			<point x="-13" y="-3"/>
			<point x="43" y="-29"/>
		</contour>
		<contour>
			<point x="435" y="12" type="curve" smooth="yes"/>
			<point x="552" y="12"/>
			<point x="624" y="84"/>
			<point x="624" y="219" type="curve"/>
			<point x="624" y="716" type="line"/>
			<point x="536" y="715" type="line"/>
			<point x="536" y="224" type="line"/>
			<point x="528" y="230"/>
			<point x="503" y="236"/>
			<point x="476" y="236" type="curve" smooth="yes"/>
			<point x="392" y="236"/>
			<point x="324" y="175"/>
			<point x="324" y="101" type="curve" smooth="yes"/>
			<point x="324" y="38"/>
			<point x="381" y="12"/>
		</contour>
		<contour>
			<point x="198" y="496" type="line"/>
			<point x="624" y="556" type="line"/>
			<point x="624" y="734" type="line"/>
			<point x="198" y="674" type="line"/>
		</contour>
	</outline>
</glyph>
<glyph name="lock" format="2">
	<unicode hex="1F512"/>
	<advance width="600"/>
	<outline>
		<contour>
			<point x="63" y="-70" type="line"/>
			<point x="537" y="-70" type="line"/>
			<point x="577" y="-39" type="line"/>
			<point x="577" y="489" type="line"/>
			<point x="537" y="520" type="line"/>
			<point x="491" y="520" type="line"/>
			<point x="491" y="662" type="line" smooth="yes"/>
			<point x="491" y="786"/>
			<point x="421" y="856"/>
			<point x="300" y="856" type="curve" smooth="yes"/>
			<point x="179" y="856"/>
			<point x="109" y="786"/>
			<point x="109" y="662" type="curve"/>
			<point x="109" y="520" type="line"/>
			<point x="63" y="520" type="line"/>
			<point x="23" y="489" type="line"/>
			<point x="23" y="-39" type="line"/>
		</contour>
		<contour>
			<point x="250" y="69" type="line"/>
			<point x="272" y="232" type="line"/>
			<point x="237" y="246"/>
			<point x="220" y="272"/>
			<point x="220" y="306" type="curve" smooth="yes"/>
			<point x="220" y="351"/>
			<point x="256" y="386"/>
			<point x="300" y="386" type="curve" smooth="yes"/>
			<point x="344" y="386"/>
			<point x="380" y="351"/>
			<point x="380" y="306" type="curve" smooth="yes"/>
			<point x="380" y="272"/>
			<point x="363" y="246"/>
			<point x="328" y="232" type="curve"/>
			<point x="350" y="69" type="line"/>
			<point x="310" y="50" type="line"/>
			<point x="290" y="50" type="line"/>
		</contour>
		<contour>
			<point x="231" y="520" type="line"/>
			<point x="231" y="643" type="line" smooth="yes"/>
			<point x="231" y="702"/>
			<point x="254" y="738"/>
			<point x="300" y="738" type="curve" smooth="yes"/>
			<point x="346" y="738"/>
			<point x="369" y="702"/>
			<point x="369" y="643" type="curve" smooth="yes"/>
			<point x="369" y="520" type="line"/>
		</contour>
	</outline>
</glyph>
<glyph name="asperacutecmb" format="2">
	<advance width="600"/>
	<outline>
		<contour>
			<point x="289" y="574" type="curve"/>
			<point x="314" y="640" type="line"/>
			<point x="299" y="643"/>
			<point x="287" y="649"/>
			<point x="291" y="668" type="curve" smooth="yes"/>
			<point x="294" y="685"/>
			<point x="314" y="696"/>
			<point x="363" y="700" type="curve"/>
			<point x="374" y="794" type="line"/>
			<point x="258" y="790"/>
			<point x="199" y="747"/>
			<point x="187" y="686" type="curve" smooth="yes"/>
			<point x="172" y="611"/>
			<point x="232" y="582"/>
		</contour>
		<contour>
			<point x="362" y="574" type="line"/>
			<point x="449" y="556" type="line"/>
			<point x="562" y="776" type="line"/>
			<point x="437" y="802" type="line"/>
		</contour>
	</outline>
	<anchor name="_aboveLC" x="340" y="520"/>
</glyph>
<glyph name="brevecmb.cyr" format="2">
	<advance width="600"/>
	<outline>
		<contour>
			<point x="352" y="574" type="curve" smooth="yes"/>
			<point x="456" y="574"/>
			<point x="527" y="637"/>
			<point x="544" y="715" type="curve"/>
			<point x="430" y="715" type="line"/>
			<point x="418" y="675"/>
			<point x="400" y="658"/>
			<point x="368" y="658" type="curve" smooth="yes"/>
			<point x="337" y="658"/>
			<point x="325" y="675"/>
			<point x="330" y="715" type="curve"/>
			<point x="216" y="715" type="line"/>
			<point x="202" y="637"/>
			<point x="248" y="574"/>
		</contour>
	</outline>
	<anchor name="_aboveLC" x="340" y="520"/>
	<anchor name="aboveLC" x="300" y="520"/>
</glyph>
<glyph name="brevegravecmb.cap" format="2">
	<advance width="600"/>
	<outline>
		<contour>
			<point x="376" y="694" type="curve" smooth="yes"/>
			<point x="478" y="694"/>
			<point x="544" y="738"/>
			<point x="570" y="834" type="curve"/>
			<point x="492" y="850" type="line"/>
			<point x="473" y="804"/>
			<point x="437" y="782"/>
			<point x="392" y="782" type="curve" smooth="yes"/>
			<point x="347" y="782"/>
			<point x="319" y="804"/>
			<point x="316" y="850" type="curve"/>
			<point x="230" y="834" type="line"/>
			<point x="224" y="738"/>
			<point x="274" y="694"/>
		</contour>
		<contour>
			<point x="380" y="806" type="line"/>
			<point x="474" y="852" type="line"/>
			<point x="404" y="1002" type="line"/>
			<point x="286" y="948" type="line"/>
		</contour>
	</outline>
	<anchor name="_aboveUC" x="370" y="670"/>
</glyph>
<glyph name="circumflexbrevecmb.cap" format="2">
	<advance width="600"/>
	<outline>
		<contour>
			<point x="284" y="680" type="line"/>
			<point x="388" y="752" type="line"/>
			<point x="392" y="752" type="line"/>
			<point x="472" y="680" type="line"/>
			<point x="544" y="724" type="line"/>
			<point x="476" y="818" type="line"/>
			<point x="328" y="818" type="line"/>
			<point x="228" y="724" type="line"/>
		</contour>
		<contour>
			<point x="408" y="854" type="curve" smooth="yes"/>
			<point x="510" y="854"/>
			<point x="570" y="896"/>
			<point x="590" y="968" type="curve"/>
			<point x="512" y="982" type="line"/>
			<point x="499" y="956"/>
			<point x="474" y="934"/>
			<point x="422" y="934" type="curve" smooth="yes"/>
			<point x="370" y="934"/>
			<point x="353" y="956"/>
			<point x="348" y="982" type="curve"/>
			<point x="266" y="968" type="line"/>
			<point x="262" y="896"/>
			<point x="306" y="854"/>
		</contour>
	</outline>
	<anchor name="_aboveUC" x="370" y="670"/>
</glyph>
<glyph name="circumflexgravecmb.cap" format="2">
	<advance width="600"/>
	<outline>
		<contour>
			<point x="284" y="680" type="line"/>
			<point x="388" y="752" type="line"/>
			<point x="392" y="752" type="line"/>
			<point x="472" y="680" type="line"/>
			<point x="546" y="724" type="line"/>
			<point x="476" y="828" type="line"/>
			<point x="328" y="828" type="line"/>
			<point x="222" y="724" type="line"/>
		</contour>
		<contour>
			<point x="214" y="756" type="line"/>
			<point x="273" y="807" type="line"/>
			<point x="186" y="899" type="line"/>
			<point x="120" y="837" type="line"/>
		</contour>
	</outline>
	<anchor name="_aboveUC" x="370" y="670"/>
</glyph>
<glyph name="eacute.sups" format="2">
	<advance width="600"/>
	<outline>
		<contour>
			<point x="362" y="748" type="line"/>
			<point x="504" y="842" type="line"/>
			<point x="442" y="922" type="line"/>
			<point x="316" y="808" type="line"/>
		</contour>
		<component base="e.sups"/>
	</outline>
</glyph>
<glyph name="eogonek.sups" format="2">
	<advance width="600"/>
	<outline>
		<contour>
			<point x="358" y="212" type="curve" smooth="yes"/>
			<point x="392" y="212"/>
			<point x="422" y="224"/>
			<point x="442" y="239" type="curve"/>
			<point x="424" y="286" type="line"/>
			<point x="413" y="280"/>
			<point x="406" y="278"/>
			<point x="397" y="278" type="curve" smooth="yes"/>
			<point x="381" y="278"/>
			<point x="366" y="287"/>
			<point x="366" y="305" type="curve" smooth="yes"/>
			<point x="366" y="334"/>
			<point x="402" y="364"/>
			<point x="475" y="404" type="curve"/>
			<point x="438" y="479" type="line"/>
			<point x="410" y="462"/>
			<point x="377" y="448"/>
			<point x="341" y="448" type="curve" smooth="yes"/>
			<point x="307" y="448"/>
			<point x="278" y="461"/>
			<point x="278" y="505" type="curve" smooth="yes"/>
			<point x="278" y="592"/>
			<point x="318" y="625"/>
			<point x="359" y="625" type="curve" smooth="yes"/>
			<point x="395" y="625"/>
			<point x="405" y="590"/>
			<point x="399" y="559" type="curve"/>
			<point x="439" y="568" type="line"/>
			<point x="256" y="568" type="line"/>
			<point x="256" y="502" type="line"/>
			<point x="481" y="502" type="line"/>
			<point x="487" y="516"/>
			<point x="497" y="548"/>
			<point x="497" y="587" type="curve" smooth="yes"/>
			<point x="497" y="653"/>
			<point x="457" y="706"/>
			<point x="367" y="706" type="curve" smooth="yes"/>
			<point x="266" y="706"/>
			<point x="166" y="637"/>
			<point x="166" y="502" type="curve" smooth="yes"/>
			<point x="166" y="414"/>
			<point x="226" y="360"/>
			<point x="315" y="360" type="curve" smooth="yes"/>
			<point x="324" y="360"/>
			<point x="338" y="361"/>
			<point x="347" y="363" type="curve"/>
			<point x="322" y="344"/>
			<point x="289" y="314"/>
			<point x="289" y="274" type="curve" smooth="yes"/>
			<point x="289" y="233"/>
			<point x="318" y="212"/>
		</contour>
	</outline>
</glyph>
<glyph name="nine.onum" format="2">
	<advance width="600"/>
	<outline>
		<contour>
			<point x="188" y="-90" type="curve" smooth="yes"/>
			<point x="392" y="-90"/>
			<point x="538" y="86"/>
			<point x="538" y="362" type="curve" smooth="yes"/>
			<point x="538" y="500"/>
			<point x="450" y="592"/>
			<point x="312" y="592" type="curve" smooth="yes"/>
			<point x="166" y="592"/>
			<point x="60" y="466"/>
			<point x="60" y="336" type="curve" smooth="yes"/>
			<point x="60" y="214"/>
			<point x="140" y="160"/>
			<point x="238" y="160" type="curve" smooth="yes"/>
			<point x="276" y="160"/>
			<point x="344" y="180"/>
			<point x="381" y="220" type="curve"/>
			<point x="396" y="332" type="line"/>
			<point x="356" y="280"/>
			<point x="314" y="268"/>
			<point x="282" y="268" type="curve" smooth="yes"/>
			<point x="232" y="268"/>
			<point x="206" y="298"/>
			<point x="206" y="350" type="curve" smooth="yes"/>
			<point x="206" y="400"/>
			<point x="236" y="474"/>
			<point x="304" y="474" type="curve" smooth="yes"/>
			<point x="354" y="474"/>
			<point x="390" y="442"/>
			<point x="390" y="378" type="curve" smooth="yes"/>
			<point x="390" y="142"/>
			<point x="300" y="38"/>
			<point x="198" y="38" type="curve" smooth="yes"/>
			<point x="154" y="38"/>
			<point x="126" y="54"/>
			<point x="104" y="84" type="curve"/>
			<point x="4" y="0" type="line"/>
			<point x="34" y="-40"/>
			<point x="94" y="-90"/>
		</contour>
	</outline>
</glyph>
<glyph name="seven.onum" format="2">
	<advance width="600"/>
	<outline>
		<contour>
			<point x="103" y="-79" type="curve"/>
			<point x="268" y="-79" type="line"/>
			<point x="328" y="168"/>
			<point x="371" y="303"/>
			<point x="567" y="482" type="curve"/>
			<point x="586" y="579" type="line"/>
			<point x="106" y="579" type="line"/>
			<point x="80" y="451" type="line"/>
			<point x="413" y="451" type="line"/>
			<point x="396" y="464" type="line"/>
			<point x="227" y="301"/>
			<point x="158" y="145"/>
		</contour>
	</outline>
</glyph>
